<mxfile host="app.diagrams.net" modified="2020-09-10T09:38:05.381Z" agent="5.0 (Windows NT 6.1; WOW64) AppleWebKit/537.36 (KHTML, like Gecko) Chrome/67.0.3396.62 Safari/537.36" etag="EsY41LcTJue7jsC7iDPi" version="13.6.9" type="github">
  <diagram id="fX3y7NBw86u-sRhxKhij" name="第 1 页">
    <mxGraphModel dx="740" dy="423" grid="1" gridSize="10" guides="1" tooltips="1" connect="1" arrows="1" fold="1" page="1" pageScale="1" pageWidth="827" pageHeight="1169" math="0" shadow="0">
      <root>
        <mxCell id="0" />
        <mxCell id="1" parent="0" />
        <mxCell id="bUM__LSuqhEs8PzsE3FX-1" value="" style="whiteSpace=wrap;html=1;aspect=fixed;" vertex="1" parent="1">
          <mxGeometry x="300" y="150" width="80" height="80" as="geometry" />
        </mxCell>
      </root>
    </mxGraphModel>
  </diagram>
</mxfile>
